# xmcd
#
# Track frame offsets:
#	150
#	9605
#	22935
#	37387
#	46110
#	57275
#	72875
#	83802
#	92682
#	106430
#
# Disc length: 1687
#
# Revision: 2
# Processed by: cddbd v1.5.1PL0 Copyright (c) Steve Scherf et al.
# Submitted via: SuperSonic v3.01
# Normalized: r0:TSWAP
#
DISCID=7a06950a
DTITLE=Various Artist - An Ozark Mountain Christmas
DYEAR=1900
DGENRE=
TTITLE0=Brenda Lee - Rockin' Around The Christmas Tree
TTITLE1=Lee Greenwood - I'll Be Home For Christmas
TTITLE2=Barbara Mandrell - It Must Have Been The Misletoe
TTITLE3=Loretta Lynn - Frosty The Snowman
TTITLE4=Ray Stevens - Greatest Little Christmas Ever Wuz
TTITLE5=The Oakridge Boys - It's Christmas Time Once Again
TTITLE6=Merle Haggard - Blue Christmas
TTITLE7=Cristy Lane - O Holy Night
TTITLE8=Glen Cambell - The Christmas Song
TTITLE9=The Oakridge Boys - Silent Night
EXTD=
EXTT0=
EXTT1=
EXTT2=
EXTT3=
EXTT4=
EXTT5=
EXTT6=
EXTT7=
EXTT8=
EXTT9=
PLAYORDER=
